# xmcd
#
# Track frame offsets:
#	150
#	21261
#	40258
#	61762
#	80252
#	99820
#	120393
#	138608
#	156393
#	175942
#	196245
#	213112
#	234461
#	251951
#	267843
#
# Disc length: 3857 seconds
#
# Revision: 0
# Processed by: cddbd v1.5.1PL2 Copyright (c) Steve Scherf et al.
# Submitted via: EasyCDDAExtractor 9.0.0.1
#
DISCID=c50f0f0f
DTITLE=Donell Jones - Journey of a Gemini
DYEAR=1900
DGENRE=
TTITLE0=Special Girl
TTITLE1=Better Start Talking
TTITLE2=I'm Gonna Be
TTITLE3=My Apology
TTITLE4=Spend the Night
TTITLE5=Portrait of a Woman
TTITLE6=Cry
TTITLE7=Ooh Na Na
TTITLE8=Feelin' You
TTITLE9=Can't Wait
TTITLE10=Lust or Love
TTITLE11=If You Want
TTITLE12=Cuttin' Me Off
TTITLE13=Another Life
TTITLE14=I'm Gonna Be
EXTD=
EXTT0=
EXTT1=
EXTT2=
EXTT3=
EXTT4=
EXTT5=
EXTT6=
EXTT7=
EXTT8=
EXTT9=
EXTT10=
EXTT11=
EXTT12=
EXTT13=
EXTT14=
PLAYORDER=
